<svg xmlns="http://www.w3.org/2000/svg" xmlns:xlink="http://www.w3.org/1999/xlink" viewBox="0 0 1078.953 1048.885"><defs><style>.cls-1{fill:url(#Unbenannter_Verlauf_2);}.cls-2{fill:#fff;}.cls-3,.cls-4,.cls-5,.cls-6{fill:none;}.cls-4,.cls-5{stroke:#fff;}.cls-4,.cls-5,.cls-6{stroke-linecap:round;stroke-linejoin:round;}.cls-4{stroke-width:52px;}.cls-5{stroke-width:53px;}.cls-6,.cls-7{stroke:#000;}.cls-6{stroke-width:4.197px;}.cls-7{stroke-miterlimit:15.118;}</style><linearGradient id="Unbenannter_Verlauf_2" x1="-57.708" y1="946.15" x2="-206.41" y2="906.922" gradientTransform="matrix(3.78, 0, 0, -3.78, 1267.925, 3977.727)" gradientUnits="userSpaceOnUse"><stop offset="0" stop-color="#3a98ff"/><stop offset="1" stop-color="#007aff"/></linearGradient></defs><g id="background"><rect id="gradient" class="cls-1" x="25.476" y="24.885" width="1024" height="1024"/></g><g id="Ground"><path id="path2320" class="cls-2" d="M180.278,848.873s2.406,39.175-39.174,39.175H0V1024H1024V904.162H872.541s-24.819-4.714-24.819-44.337-197.514,0-197.514,0,4.336,37.552-37.552,37.552H409.877s-32.085-5.23-32.085-48.5S180.278,848.873,180.278,848.873Z" transform="translate(25.476 24.885)"/></g><g id="Figures"><g id="g2224"><g id="g2184"><path id="path1672" class="cls-2" d="M180.278,848.873H377.792V522.148s.4-26.907-29.765-26.907c-46.142,0-69.686-.794-131.183.591-37.021.834-36.566,37.256-36.566,37.256Z" transform="translate(25.476 24.885)"/><rect id="rect2156" class="cls-3" y="25.553" width="608.831" height="884.813"/></g><g id="g2203"><circle id="path1292" class="cls-2" cx="309.97" cy="418.147" r="75.102"/><path id="path1854" class="cls-4" d="M210.049,523.339,420.79,474.973l61.966-200.62" transform="translate(25.476 24.885)"/></g></g><g id="g2256"><g id="g2246"><path id="path2242" class="cls-2" d="M847.722,859.825H650.208V496.6s-.4-26.907,29.765-26.907c46.142,0,69.686-.794,131.183.591,37.021.834,36.566,37.256,36.566,37.256Z" transform="translate(25.476 24.885)"/><rect id="rect2244" class="cls-3" x="470.122" width="608.831" height="884.813"/></g><g id="g2254"><circle id="circle2248" class="cls-2" cx="768.983" cy="392.593" r="75.102"/><path id="path2250" class="cls-5" d="M817.951,497.786,607.21,449.419,545.244,258.535" transform="translate(25.476 24.885)"/></g></g></g><g id="masks"><g id="g2288"><path id="path2278" class="cls-6" d="M277.066,386.546s54.14,3.355,55.965,3.355,26.389-.144,26.389-.144.419,24.757-6.729,38.6-16.708,19.52-16.708,19.52-12-13.245-15.053-14.976c-2.848-1.615-49.414-14.55-49.414-14.55" transform="translate(25.476 24.885)"/><path id="path2284" class="cls-7" d="M333.183,389.9l-12.549,42.441,15.349,15.533,10.675-8.6,11.4-22.586,1.361-26.928-26.237.144" transform="translate(25.476 24.885)"/></g><g id="g2294"><path id="path2290" class="cls-6" d="M765.974,364.839s-68.337,14.111-70.162,14.111-26.389-.145-26.389-.145a75.1,75.1,0,0,0,7.59,28.7c7.149,13.841,25.311,24.468,25.311,24.468s9.418-10.449,12.472-12.181c2.848-1.615,51.565-22.724,51.565-22.724" transform="translate(25.476 24.885)"/><path id="path2292" class="cls-7" d="M703.189,376.153,715.738,418.6c-9.3,4.685-13.822,7.554-13.414,13.382l-12.61-6.454L672.505,397.99l-3.082-19.185,33.766-2.652" transform="translate(25.476 24.885)"/></g></g></svg>